REM DIRINDEX 1\2\6,1\2\7,1\2\8,1\3\9,1\3\10,1\3\11,1\4\12,1\4\13,1\4\14,1\5\15,1\5\16,1\5\17,1\5\18
REM DIRNAME cjc019,folder01,folder02,folder03,folder04,folder05,folder06,folder07,folder08,folder09,folder10,folder11,folder12,folder13,folder14,folder15,folder16,folder17
TITLE ""
FILE "2Q_j_1541-1554.mp3" MP3
  TRACK 01 AUDIO
    TITLE "6:cjc019_1086"
    INDEX 01 00:00:00
  TRACK 02 AUDIO
    TITLE "0:"
    INDEX 01 00:02:16
  TRACK 03 AUDIO
    TITLE "7:cjc019_1087"
    INDEX 01 00:03:04
  TRACK 04 AUDIO
    TITLE "0:"
    INDEX 01 00:05:36
  TRACK 05 AUDIO
    TITLE "8:cjc019_1088"
    INDEX 01 00:06:16
  TRACK 06 AUDIO
    TITLE "0:"
    INDEX 01 00:10:33
  TRACK 07 AUDIO
    TITLE "6:cjc019_1089"
    INDEX 01 00:11:15
  TRACK 08 AUDIO
    TITLE "0:"
    INDEX 01 00:13:20
  TRACK 09 AUDIO
    TITLE "7:cjc019_1090"
    INDEX 01 00:14:02
  TRACK 10 AUDIO
    TITLE "0:"
    INDEX 01 00:16:22
  TRACK 11 AUDIO
    TITLE "8:cjc019_1091"
    INDEX 01 00:16:71
  TRACK 12 AUDIO
    TITLE "0:"
    INDEX 01 00:22:25
  TRACK 13 AUDIO
    TITLE "6:cjc019_1092"
    INDEX 01 00:23:01
  TRACK 14 AUDIO
    TITLE "0:"
    INDEX 01 00:25:29
  TRACK 15 AUDIO
    TITLE "7:cjc019_1093"
    INDEX 01 00:26:07
  TRACK 16 AUDIO
    TITLE "0:"
    INDEX 01 00:28:47
  TRACK 17 AUDIO
    TITLE "8:cjc019_1094"
    INDEX 01 00:29:29
  TRACK 18 AUDIO
    TITLE "0:"
    INDEX 01 00:33:46
  TRACK 19 AUDIO
    TITLE "6:cjc019_1095"
    INDEX 01 00:34:26
  TRACK 20 AUDIO
    TITLE "0:"
    INDEX 01 00:36:29
  TRACK 21 AUDIO
    TITLE "7:cjc019_1096"
    INDEX 01 00:37:08
  TRACK 22 AUDIO
    TITLE "0:"
    INDEX 01 00:40:68
  TRACK 23 AUDIO
    TITLE "8:cjc019_1097"
    INDEX 01 00:41:47
  TRACK 24 AUDIO
    TITLE "0:"
    INDEX 01 00:47:56
  TRACK 25 AUDIO
    TITLE "6:cjc019_1098"
    INDEX 01 00:48:32
  TRACK 26 AUDIO
    TITLE "0:"
    INDEX 01 00:50:27
  TRACK 27 AUDIO
    TITLE "7:cjc019_1099"
    INDEX 01 00:51:01
  TRACK 28 AUDIO
    TITLE "0:"
    INDEX 01 00:52:65
  TRACK 29 AUDIO
    TITLE "8:cjc019_1100"
    INDEX 01 00:53:39
  TRACK 30 AUDIO
    TITLE "0:"
    INDEX 01 00:58:11
  TRACK 31 AUDIO
    TITLE "6:cjc019_1101"
    INDEX 01 00:58:66
  TRACK 32 AUDIO
    TITLE "0:"
    INDEX 01 01:00:37
  TRACK 33 AUDIO
    TITLE "7:cjc019_1102"
    INDEX 01 01:01:15
  TRACK 34 AUDIO
    TITLE "0:"
    INDEX 01 01:02:26
  TRACK 35 AUDIO
    TITLE "8:cjc019_1103"
    INDEX 01 01:03:02
  TRACK 36 AUDIO
    TITLE "0:"
    INDEX 01 01:08:56
  TRACK 37 AUDIO
    TITLE "6:cjc019_1104"
    INDEX 01 01:09:34
  TRACK 38 AUDIO
    TITLE "0:"
    INDEX 01 01:11:47
  TRACK 39 AUDIO
    TITLE "7:cjc019_1105"
    INDEX 01 01:12:28
  TRACK 40 AUDIO
    TITLE "0:"
    INDEX 01 01:15:15
  TRACK 41 AUDIO
    TITLE "8:cjc019_1106"
    INDEX 01 01:15:66
  TRACK 42 AUDIO
    TITLE "0:"
    INDEX 01 01:19:64
  TRACK 43 AUDIO
    TITLE "6:cjc019_1107"
    INDEX 01 01:20:44
  TRACK 44 AUDIO
    TITLE "0:"
    INDEX 01 01:21:69
  TRACK 45 AUDIO
    TITLE "7:cjc019_1108"
    INDEX 01 01:22:52
  TRACK 46 AUDIO
    TITLE "0:"
    INDEX 01 01:24:53
  TRACK 47 AUDIO
    TITLE "8:cjc019_1109"
    INDEX 01 01:25:35
  TRACK 48 AUDIO
    TITLE "0:"
    INDEX 01 01:28:37
  TRACK 49 AUDIO
    TITLE "6:cjc019_1110"
    INDEX 01 01:29:19
  TRACK 50 AUDIO
    TITLE "0:"
    INDEX 01 01:31:20
  TRACK 51 AUDIO
    TITLE "7:cjc019_1111"
    INDEX 01 01:32:06
  TRACK 52 AUDIO
    TITLE "0:"
    INDEX 01 01:34:16
  TRACK 53 AUDIO
    TITLE "8:cjc019_1112"
    INDEX 01 01:34:65
  TRACK 54 AUDIO
    TITLE "0:"
    INDEX 01 01:38:40
  TRACK 55 AUDIO
    TITLE "6:cjc019_1113"
    INDEX 01 01:39:19
  TRACK 56 AUDIO
    TITLE "0:"
    INDEX 01 01:41:18
  TRACK 57 AUDIO
    TITLE "7:cjc019_1114"
    INDEX 01 01:41:71
  TRACK 58 AUDIO
    TITLE "0:"
    INDEX 01 01:46:18
  TRACK 59 AUDIO
    TITLE "8:cjc019_1115"
    INDEX 01 01:46:70
  TRACK 60 AUDIO
    TITLE "0:"
    INDEX 01 01:49:41
  TRACK 61 AUDIO
    TITLE "6:cjc019_1116"
    INDEX 01 01:50:21
  TRACK 62 AUDIO
    TITLE "0:"
    INDEX 01 01:52:26
  TRACK 63 AUDIO
    TITLE "7:cjc019_1117"
    INDEX 01 01:53:06
  TRACK 64 AUDIO
    TITLE "0:"
    INDEX 01 01:58:07
  TRACK 65 AUDIO
    TITLE "8:cjc019_1118"
    INDEX 01 01:58:58
  TRACK 66 AUDIO
    TITLE "0:"
    INDEX 01 02:03:32
  TRACK 67 AUDIO
    TITLE "6:cjc019_1119"
    INDEX 01 02:04:19
  TRACK 68 AUDIO
    TITLE "0:"
    INDEX 01 02:06:05
  TRACK 69 AUDIO
    TITLE "7:cjc019_1120"
    INDEX 01 02:06:61
  TRACK 70 AUDIO
    TITLE "0:"
    INDEX 01 02:10:57
  TRACK 71 AUDIO
    TITLE "8:cjc019_1121"
    INDEX 01 02:11:33
  TRACK 72 AUDIO
    TITLE "0:"
    INDEX 01 02:15:15
  TRACK 73 AUDIO
    TITLE "6:cjc019_1122"
    INDEX 01 02:15:68
  TRACK 74 AUDIO
    TITLE "0:"
    INDEX 01 02:17:63
  TRACK 75 AUDIO
    TITLE "7:cjc019_1123"
    INDEX 01 02:18:35
  TRACK 76 AUDIO
    TITLE "0:"
    INDEX 01 02:20:54
  TRACK 77 AUDIO
    TITLE "8:cjc019_1124"
    INDEX 01 02:21:32
  TRACK 78 AUDIO
    TITLE "0:"
    INDEX 01 02:25:33
  TRACK 79 AUDIO
    TITLE "6:cjc019_1125"
    INDEX 01 02:26:11
  TRACK 80 AUDIO
    TITLE "0:"
    INDEX 01 02:27:52
  TRACK 81 AUDIO
    TITLE "7:cjc019_1126"
    INDEX 01 02:28:35
  TRACK 82 AUDIO
    TITLE "0:"
    INDEX 01 02:30:27
  TRACK 83 AUDIO
    TITLE "8:cjc019_1127"
    INDEX 01 02:30:74
  TRACK 84 AUDIO
    TITLE "0:"
    INDEX 01 02:35:55
